# xmcd
#
# Track frame offsets:
#	150
#	28796
#	46847
#	71281
#	92480
#	105565
#	118388
#	135260
#	152716
#	169766
#	212411
#	235692
#	252483
#	267977
#	287990
#	311223
#
# Disc length: 4386 seconds
#
# Revision: 1
# Processed by: cddbd v1.5.2PL0 Copyright (c) Steve Scherf et al.
# Submitted via: audiograbber 1.83.01
#
DISCID=de112010
DTITLE=Jay Gordon and the Penetrators - Gold Rings Silver Bullets
DYEAR=2007
DGENRE=Blues
TTITLE0=Pain
TTITLE1=Lost in Time
TTITLE2=Fire and Brimstone Boogie
TTITLE3=Sixstring Outlaw
TTITLE4=Thing Going On
TTITLE5=Driving Me Wild
TTITLE6=Loves Emotion
TTITLE7=Let It Ring
TTITLE8=Propaganda
TTITLE9=The Original Sin
TTITLE10=Juke Joint
TTITLE11=Pickin' on a Piece of Wood
TTITLE12=Blacksheep
TTITLE13=Freight Train
TTITLE14=My Heart is Heavy
TTITLE15=Blue Hearts
EXTD=
EXTT0=
EXTT1=
EXTT2=
EXTT3=
EXTT4=
EXTT5=
EXTT6=
EXTT7=
EXTT8=
EXTT9=
EXTT10=
EXTT11=
EXTT12=
EXTT13=
EXTT14=
EXTT15=
PLAYORDER=
